<svg xmlns="http://www.w3.org/2000/svg" viewBox="0 0 32 32" id="Twister"><path fill="#f39200" d="M21 18c-4.27 0-8.1 1.35-10.25 3.56C8.41 20.14 7 18.2 7 16a6.07 6.07 0 0 1 2.15-4.46c1.59-1.48 5.33-3.76 13-3.66h1.42l-.2.07a6 6 0 0 0-2.18 1.39l-2.94 2.94 1.41 1.41L26.41 7 19.71.29l-1.42 1.42L21 4.42a6 6 0 0 0 2.3 1.43h.07-1.28c-6.28 0-11.29 1.41-14.3 4.2A8.12 8.12 0 0 0 5 16c0 5.7 6.88 10 16 10 4.12 0 6-2.07 6-4s-1.87-4-6-4zm0 6a22.22 22.22 0 0 1-8.34-1.49A13.39 13.39 0 0 1 21 20c2.59 0 4 1 4 2s-1.4 2-4 2zm-12 .87a4.81 4.81 0 0 0 0 .63c0 2.63 2.11 5 5.63 6.38l.73-1.88C12.67 29 11 27.31 11 25.56c0-.02-2-.69-2-.69z" class="color515151 svgShape"></path></svg>